<?xml version="1.0" encoding="iso-8859-1"?>
<!-- Generator: Adobe Illustrator 18.1.1, SVG Export Plug-In . SVG Version: 6.00 Build 0)  -->
<svg version="1.1" id="Capa_1" xmlns="http://www.w3.org/2000/svg" xmlns:xlink="http://www.w3.org/1999/xlink" x="0px" y="0px"
	 viewBox="0 0 612 612" style="enable-background:new 0 0 612 612;" xml:space="preserve">
<g>
	<g>
		<path d="M388.201,376.517c0,8.252,5.741,12.917,16.505,12.917c10.047,0,15.787-5.023,22.246-12.199v-24.399
			C397.53,357.142,388.201,366.471,388.201,376.517z"/>
		<g>
			<path d="M520.501,0H91.499c-7.305,0-13.228,5.922-13.228,13.228v585.544c0,7.306,5.922,13.228,13.228,13.228h429.002
				c7.305,0,13.228-5.922,13.228-13.228V13.228C533.729,5.922,527.807,0,520.501,0z M348.899,32.79
				c22.108,0,37.268,17.37,37.268,51.48c0,34.267-15.159,52.428-37.268,52.428c-22.108,0-37.268-18.16-37.268-52.428
				C311.632,50.002,326.792,32.79,348.899,32.79z M226.673,122.228c0-1.849,0.774-3.615,2.136-4.867
				c22.644-20.838,39.87-36.977,39.87-50.147c0-9.001-5.053-13.264-12.317-13.264c-4.623,0-8.479,2.302-11.995,5.301
				c-2.622,2.236-6.523,2.079-8.96-0.358l-5.267-5.267c-2.69-2.69-2.564-7.096,0.28-9.623c8.619-7.66,17.289-11.212,29.733-11.212
				c20.213,0,34.426,12.949,34.426,32.846c0,16.107-15.16,33.793-28.74,47.69c5.053-0.632,12.317-1.263,16.739-1.263h10.125
				c3.653,0,6.614,2.961,6.614,6.614v9.511c0,3.653-2.961,6.614-6.614,6.614h-59.412c-3.653,0-6.614-2.961-6.614-6.614v-5.959
				H226.673z M119.823,317.674c0-78.219,53.82-122.709,114.098-122.709c23.73,0,44.659,9.336,60.529,21.608
				c6.02,4.656,6.764,13.477,1.714,19.171l-16.676,18.805c-4.421,4.985-11.854,5.893-17.359,2.141
				c-8.161-5.562-16.486-8.623-27.49-8.623c-27.987,0-51.667,25.116-51.667,67.454c0,43.774,20.093,68.172,50.232,68.172
				c13.026,0,23.405-4.162,31.958-10.562c5.488-4.107,13.186-3.403,17.783,1.683l16.572,18.334
				c4.875,5.393,4.528,13.759-0.874,18.623c-18.527,16.683-41.69,25.025-66.156,25.025
				C171.49,436.796,119.823,397.328,119.823,317.674z M451.541,544.435c0,9.132-7.403,16.535-16.535,16.535h-258.01
				c-9.132,0-16.535-7.403-16.535-16.535v-9.921c0-9.132,7.403-16.535,16.535-16.535h258.01c9.132,0,16.535,7.403,16.535,16.535
				V544.435z M488.665,419.262c0,7.306-5.922,13.228-13.228,13.228h-26.676c-6.07,0-11.361-4.131-12.833-10.02l-1.801-7.203h-1.435
				c-14.352,12.917-30.139,21.528-49.514,21.528c-33.727,0-53.82-25.834-53.82-55.255c0-37.315,28.704-58.126,97.594-65.302
				c-1.435-12.917-9.328-18.658-25.116-18.658c-10.175,0-20.796,3.117-33.967,9.352c-6.385,3.023-14.018,0.535-17.354-5.692
				l-9.272-17.308c-3.478-6.492-1.005-14.615,5.547-17.978c21.455-11.013,43.581-17.171,67.246-17.171
				c46.644,0,74.63,25.116,74.63,83.959L488.665,419.262L488.665,419.262z"/>
			<path d="M348.899,115.852c6.316,0,11.686-5.053,11.686-31.583s-5.369-30.635-11.686-30.635c-6.317,0-11.686,4.105-11.686,30.635
				C337.213,110.799,342.583,115.852,348.899,115.852z"/>
		</g>
	</g>
</g>
<g>
</g>
<g>
</g>
<g>
</g>
<g>
</g>
<g>
</g>
<g>
</g>
<g>
</g>
<g>
</g>
<g>
</g>
<g>
</g>
<g>
</g>
<g>
</g>
<g>
</g>
<g>
</g>
<g>
</g>
</svg>
