<?xml version="1.0" encoding="iso-8859-1"?>
<!DOCTYPE svg PUBLIC "-//W3C//DTD SVG 20010904//EN"
 "http://www.w3.org/TR/2001/REC-SVG-20010904/DTD/svg10.dtd">
<svg version="1.1" id="Capa_1" xmlns:xlink="http://www.w3.org/1999/xlink" x="0px" y="0px"
 width="512.000000pt" height="512.000000pt" viewBox="0 0 512.000000 512.000000"
 style="enable-background:new 0 0 512.000000 512.000000;" xml:space="preserve">
<metadata>
Created by potrace 1.13, written by Peter Selinger 2001-2015
</metadata>
<g>
<path d="M1388 5096 c-152 -63 -246 -158 -311 -319 -20 -48 -22 -74 -27 -372
l-5 -320 -522 -3 -523 -2 0 -1645 0 -1645 525 0 525 0 0 -122 c0 -153 18 -239
70 -345 44 -90 125 -181 200 -225 107 -62 -2 -59 1766 -56 l1609 3 60 23 c77
29 184 101 228 155 19 23 48 67 65 97 66 116 62 16 62 1725 l0 1550 -658 762
-657 763 -1175 0 -1175 0 -57 -24z m2172 -798 c0 -377 3 -487 15 -543 35 -167
155 -327 304 -404 129 -67 158 -71 569 -71 l362 0 0 -192 c0 -106 -7 -698 -15
-1315 -14 -1087 -16 -1124 -35 -1177 -26 -69 -85 -130 -158 -164 l-57 -27
-1440 -3 c-998 -2 -1456 1 -1492 8 -134 28 -233 167 -233 326 l0 54 1035 0
1035 0 0 1645 0 1645 -1035 0 -1035 0 0 228 c0 222 1 228 26 282 28 61 62 101
112 132 77 47 60 47 1080 47 l962 1 0 -472z m-440 -1863 l0 -1315 -1395 0
-1395 0 0 1315 0 1315 1395 0 1395 0 0 -1315z"/>
<path d="M858 3258 c5 -7 136 -186 291 -397 187 -254 279 -387 273 -395 -5 -6
-143 -180 -307 -386 -164 -206 -323 -405 -352 -442 l-54 -68 293 0 293 1 203
274 c112 151 207 275 210 274 4 0 93 -122 197 -271 105 -149 195 -272 200
-274 6 -3 137 -3 292 -2 l281 3 -344 449 c-189 248 -344 451 -344 453 0 2 135
179 300 393 165 214 300 391 300 394 0 4 -134 5 -297 4 l-298 -3 -138 -205
c-75 -113 -141 -206 -145 -208 -5 -1 -68 92 -141 208 l-133 210 -295 0 c-235
0 -293 -3 -285 -12z"/>
</g>
</svg>
