<svg id="svg" version="1.1" width="512" height="512" xmlns="http://www.w3.org/2000/svg" xmlns:xlink="http://www.w3.org/1999/xlink" style="display: block;"><g id="svgg"><path id="path0" d="M110.156 0.532 C 101.156 3.674,91.458 11.639,86.869 19.660 C 82.020 28.134,81.250 33.434,81.250 58.328 L 81.250 80.469 94.466 80.469 L 107.683 80.469 107.943 63.086 C 108.243 43.048,109.142 39.807,116.103 33.680 C 122.851 27.740,118.072 28.079,202.539 27.564 L 278.125 27.105 278.125 65.732 C 278.125 114.499,278.626 116.856,291.797 130.107 C 304.483 142.870,308.496 143.916,346.378 144.327 L 375.958 144.648 375.476 167.051 C 375.210 179.372,374.643 222.852,374.216 263.672 C 373.789 304.492,373.283 340.753,373.092 344.251 C 372.543 354.300,368.231 361.389,359.993 365.788 L 356.641 367.578 240.234 367.578 C 129.550 367.578,123.701 367.509,121.248 366.170 C 113.612 362.001,107.813 351.296,107.813 341.368 L 107.813 339.063 94.415 339.063 L 81.018 339.063 81.492 349.805 C 82.623 375.446,94.960 393.322,113.974 396.871 C 119.810 397.960,357.204 397.933,363.925 396.843 C 380.148 394.210,391.635 384.474,397.948 368.006 L 399.609 363.672 399.819 241.551 L 400.029 119.429 381.740 98.191 C 364.629 78.321,344.015 54.443,340.137 50.000 C 336.788 46.163,316.086 22.070,306.759 11.155 L 297.266 0.044 204.297 0.084 C 153.164 0.106,110.801 0.307,110.156 0.532 " stroke="none" fill="#434440" fill-rule="evenodd"></path><path id="path1" d="M88.515 338.864 C 92.296 339.007,98.272 339.006,101.796 338.862 C 105.320 338.717,102.227 338.600,94.922 338.601 C 87.617 338.602,84.734 338.720,88.515 338.864 " stroke="none" fill="#384c3f" fill-rule="evenodd"></path><path id="path2" d="M87.695 81.050 C 91.455 81.194,97.607 81.194,101.367 81.050 C 105.127 80.907,102.051 80.790,94.531 80.790 C 87.012 80.790,83.936 80.907,87.695 81.050 " stroke="none" fill="#295a3e" fill-rule="evenodd"></path><path id="path3" d="M-0.000 209.766 L 0.000 338.914 134.961 338.984 L 269.922 339.054 269.922 209.766 L 269.922 80.477 134.961 80.547 L -0.000 80.617 -0.000 209.766 M242.969 209.766 L 242.969 312.500 134.766 312.500 L 26.563 312.500 26.563 209.766 L 26.563 107.031 134.766 107.031 L 242.969 107.031 242.969 209.766 M66.082 144.727 C 66.643 145.725,69.208 149.232,80.618 164.604 C 84.188 169.414,87.637 174.106,88.281 175.032 C 89.709 177.082,101.419 193.083,104.267 196.875 C 110.311 204.922,111.640 206.932,111.072 207.165 C 110.729 207.306,108.552 209.883,106.235 212.891 C 103.918 215.898,101.368 219.062,100.570 219.922 C 99.771 220.781,97.647 223.418,95.850 225.781 C 94.053 228.145,92.387 230.254,92.148 230.469 C 91.910 230.684,90.678 232.259,89.412 233.969 C 86.885 237.381,85.518 239.104,83.304 241.667 C 82.500 242.598,80.503 245.117,78.867 247.266 C 77.230 249.414,73.060 254.688,69.599 258.984 C 62.136 268.250,62.749 267.480,59.354 271.856 C 57.862 273.779,56.201 275.825,55.664 276.404 C 55.127 276.982,54.688 277.606,54.688 277.790 C 54.688 277.974,65.146 278.123,77.930 278.120 L 101.172 278.114 103.111 275.190 C 104.178 273.582,106.407 270.508,108.065 268.359 C 112.342 262.819,124.385 246.591,125.781 244.488 C 126.426 243.517,127.868 241.635,128.987 240.306 C 130.106 238.978,131.447 237.080,131.967 236.089 L 132.914 234.288 135.012 236.993 C 136.165 238.481,139.219 242.759,141.797 246.499 C 144.375 250.240,147.363 254.452,148.438 255.859 C 149.512 257.266,150.918 259.209,151.563 260.177 C 152.207 261.144,153.965 263.633,155.469 265.707 C 156.973 267.780,159.543 271.423,161.180 273.801 L 164.156 278.125 187.156 278.125 C 208.359 278.125,212.014 277.803,209.368 276.167 C 208.934 275.899,206.146 272.451,203.171 268.504 C 200.197 264.557,196.270 259.395,194.444 257.031 C 184.598 244.287,173.863 230.216,166.068 219.841 C 163.519 216.448,160.267 212.290,158.842 210.602 C 155.333 206.445,155.292 206.604,161.960 198.438 C 162.486 197.793,163.966 195.859,165.248 194.141 C 166.529 192.422,167.930 190.615,168.359 190.126 C 168.789 189.636,169.844 188.246,170.703 187.037 C 171.563 185.828,173.172 183.768,174.280 182.459 C 175.388 181.149,177.847 177.969,179.744 175.391 C 181.642 172.813,183.385 170.527,183.618 170.313 C 183.850 170.098,186.040 167.285,188.484 164.063 C 190.928 160.840,193.201 157.851,193.534 157.421 C 193.868 156.991,195.177 155.233,196.443 153.515 C 197.709 151.797,198.952 150.215,199.204 150.000 C 200.298 149.069,203.125 145.041,203.125 144.414 C 203.125 144.029,192.734 143.818,179.500 143.934 L 155.876 144.141 145.123 160.156 C 139.209 168.965,133.955 176.172,133.447 176.172 C 132.634 176.172,129.096 171.199,127.612 167.969 C 127.316 167.324,125.025 163.709,122.521 159.935 C 120.017 156.162,117.969 152.904,117.969 152.697 C 117.969 152.489,116.689 150.392,115.124 148.035 L 112.279 143.750 88.906 143.750 C 70.435 143.750,65.648 143.955,66.082 144.727 " stroke="none" fill="#08743b" fill-rule="evenodd"></path><path id="path4" d="M269.913 209.766 C 269.913 280.664,270.005 309.552,270.117 273.962 C 270.230 238.371,270.230 180.363,270.117 145.056 C 270.005 109.748,269.913 138.867,269.913 209.766 " stroke="none" fill="#047737" fill-rule="evenodd"></path></g></svg>